<?xml version="1.0"?>
<svg xmlns="http://www.w3.org/2000/svg" height="512px" viewBox="-14 0 512 512.00075" width="512px"><path d="m212.414062 67.34375c0 5.53125-2.15625 10.734375-6.066406 14.644531-2.929687 2.929688-2.929687 7.675781 0 10.605469 1.464844 1.464844 3.382813 2.199219 5.304688 2.199219 1.917968 0 3.835937-.734375 5.300781-2.199219 6.746094-6.742188 10.460937-15.710938 10.460937-25.25s-3.714843-18.507812-10.460937-25.25c-8.074219-8.074219-8.074219-21.214844 0-29.289062 2.929687-2.929688 2.929687-7.679688 0-10.605469-2.929687-2.929688-7.675781-2.929688-10.605469 0-13.921875 13.921875-13.921875 36.578125 0 50.5 3.910156 3.910156 6.066406 9.113281 6.066406 14.644531zm156.214844 14.644531c-2.929687 2.929688-2.929687 7.675781 0 10.605469 1.464844 1.464844 3.382813 2.195312 5.304688 2.195312 1.917968 0 3.839844-.730468 5.304687-2.195312 13.921875-13.921875 13.921875-36.578125-.003906-50.503906-3.910156-3.910156-6.0625-9.109375-6.0625-14.640625 0-5.535157 2.152344-10.734375 6.0625-14.644531 2.929687-2.929688 2.929687-7.679688.003906-10.609376-2.933593-2.925781-7.679687-2.925781-10.609375 0-6.746094 6.746094-10.460937 15.710938-10.460937 25.25 0 9.539063 3.714843 18.507813 10.460937 25.253907 8.074219 8.074219 8.074219 21.214843 0 29.289062zm-81.140625 0c-2.929687 2.929688-2.929687 7.675781 0 10.605469 1.464844 1.464844 3.382813 2.195312 5.304688 2.195312 1.917969 0 3.835937-.730468 5.300781-2.195312 13.925781-13.921875 13.925781-36.578125 0-50.503906-8.074219-8.074219-8.074219-21.210938 0-29.285156 2.929688-2.929688 2.929688-7.679688 0-10.609376-2.929688-2.925781-7.675781-2.925781-10.605469 0-13.921875 13.925782-13.921875 36.578126 0 50.503907 8.074219 8.074219 8.074219 21.214843 0 29.289062zm62.671875 159.589844c0-3.789063 3.085938-6.875 6.875-6.875 3.789063 0 6.875 3.085937 6.875 6.875 0 4.144531 3.355469 7.5 7.5 7.5 4.140625 0 7.5-3.355469 7.5-7.5 0-12.058594-9.8125-21.875-21.875-21.875s-21.875 9.816406-21.875 21.875c0 4.144531 3.359375 7.5 7.5 7.5 4.144532 0 7.5-3.355469 7.5-7.5zm-128.488281 0c0-3.789063 3.085937-6.875 6.875-6.875 3.792969 0 6.875 3.085937 6.875 6.875 0 4.144531 3.359375 7.5 7.5 7.5 4.144531 0 7.5-3.355469 7.5-7.5 0-12.058594-9.8125-21.875-21.875-21.875-12.058594 0-21.875 9.816406-21.875 21.875 0 4.144531 3.359375 7.5 7.5 7.5 4.144531 0 7.5-3.355469 7.5-7.5zm71.121094 110.074219c-14.933594 0-27.082031 12.144531-27.082031 27.078125 0 14.929687 12.148437 27.078125 27.082031 27.078125 14.929687 0 27.078125-12.148438 27.078125-27.078125 0-14.933594-12.148438-27.078125-27.078125-27.078125zm0 39.15625c-6.660157 0-12.082031-5.417969-12.082031-12.078125 0-6.660157 5.421874-12.078125 12.082031-12.078125 6.660156 0 12.078125 5.417968 12.078125 12.078125 0 6.660156-5.417969 12.078125-12.078125 12.078125zm0-117.984375c8.011719 0 15.628906-3.46875 20.898437-9.515625 2.722656-3.125 2.394532-7.863282-.726562-10.582032-3.125-2.722656-7.859375-2.398437-10.582032.726563-2.421874 2.777344-5.917968 4.371094-9.59375 4.371094-3.671874 0-7.167968-1.59375-9.589843-4.371094-2.726563-3.125-7.460938-3.449219-10.582031-.726563-3.125 2.71875-3.449219 7.457032-.730469 10.582032 5.273437 6.046875 12.894531 9.515625 20.90625 9.515625zm147.519531-17.964844c-11.054688-9.632813-14.988281-25.316406-9.796875-39.027344l22.875-60.382812c3.265625-8.617188 2.089844-18.285157-3.148437-25.867188-5.234376-7.582031-13.859376-12.105469-23.074219-12.105469h-216.515625c-4.144532 0-7.5 3.355469-7.5 7.5 0 4.140626 3.355468 7.5 7.5 7.5h216.515625c4.351562 0 8.261719 2.050782 10.734375 5.628907 2.46875 3.578125 3.003906 7.964843 1.460937 12.03125l-22.875 60.382812c-7.402343 19.550781-1.792969 41.914063 13.96875 55.648438 27.042969 23.574219 40.859375 57.851562 38.984375 92.308593-36.882812 15.449219-53.296875 8.574219-77.695312-1.660156-12.855469-5.394531-27.289063-11.433594-47.105469-15.605468-.617187-3.707032-2.195313-6.96875-4.777344-9.550782-6.132812-6.132812-16.082031-6.671875-26.789062-1.894531-4.195313-10.949219-11.609375-17.605469-20.28125-17.605469-8.675781 0-16.089844 6.65625-20.28125 17.605469-10.710938-4.777344-20.65625-4.238281-26.792969 1.894531-2.582031 2.582032-4.15625 5.84375-4.777344 9.550782-19.816406 4.167968-34.25 10.210937-47.105468 15.605468-24.398438 10.234375-40.8125 17.109375-77.691407 1.660156-1.875-34.457031 11.9375-68.734374 38.984375-92.308593 6.441406-5.617188 11.183594-12.675781 14.039063-20.390625.226562-.472656.402343-.972656.527343-1.488282 3.609376-10.78125 3.582032-22.722656-.601562-33.769531l-22.875-60.382812c-1.539062-4.066407-1.007812-8.453125 1.464844-12.03125s6.382812-5.628907 10.730468-5.628907h16.949219c4.140625 0 7.5-3.359374 7.5-7.5 0-4.144531-3.359375-7.5-7.5-7.5h-16.949219c-9.210937 0-17.839843 4.523438-23.074218 12.105469s-6.410156 17.25-3.148438 25.867188l14.144532 37.335937c-5.941407-.519531-11.835938-1.601562-17.625-3.242187-28.125-7.957031-58.277344-3.34375-82.730469 12.660156s-40.75 41.789063-44.710938 70.746094c-7.523437 55.023437 18.839844 108.246093 67.171875 135.597656l56.253906 31.832031c.796876.453125 1.621094.902344 2.453126 1.339844l7.347656 17.980469c12.984375 31.769531 43.550781 52.300781 77.875 52.300781h160.839844c21.539062 0 42.039062-8.140625 57.71875-22.921875 3.015624-2.839844 3.15625-7.585937.316406-10.601563-2.84375-3.015624-7.589844-3.152343-10.601563-.3125-12.886719 12.148438-29.734375 18.835938-47.433593 18.835938h-160.839844c-28.203125 0-53.324219-16.871094-63.992188-42.976562l-13.503906-33.042969c6.957031 1.527343 13.289062 2.199219 19.179688 2.199219 17.246093 0 30.769531-5.675782 45.574218-11.882813 11.273438-4.726563 23.976563-10.050781 40.519532-13.902344 1.164062.582031 2.390624 1.125 3.679687 1.617188-4.777344 10.710937-4.242187 20.65625 1.890625 26.789062 6.132812 6.132813 16.082031 6.671875 26.789062 1.894531 4.195313 10.949219 11.609376 17.601563 20.28125 17.601563 8.675782 0 16.089844-6.652344 20.28125-17.601563 10.710938 4.777344 20.65625 4.238282 26.792969-1.894531 6.132813-6.132812 6.667969-16.078125 1.890625-26.789062 1.289063-.492188 2.515625-1.035157 3.679688-1.617188 16.539062 3.851563 29.246094 9.175781 40.519531 13.902344 14.804687 6.207031 28.324219 11.882813 45.574219 11.882813 5.890625 0 12.21875-.671876 19.179687-2.199219l-12.671875 31.003906c-1.566406 3.835937.269532 8.210937 4.105469 9.78125.929687.378906 1.886719.558594 2.832031.558594 2.957032 0 5.757813-1.757813 6.945313-4.664063l23.097656-56.519531c20.917969-51.171875 6.96875-109.957031-34.703125-146.28125zm-295.042969 0c-31.171875 27.171875-46.828125 66.917969-43.984375 106.640625l-4.714844-2.667969c-27.851562-15.761719-43.042968-46.433593-38.707031-78.140625 1.71875-12.566406 8.789063-23.75 19.398438-30.695312 10.605469-6.941406 23.6875-8.941406 35.890625-5.492188 11.96875 3.390625 24.214844 5.285156 36.546875 5.675782-1.324219 1.671874-2.789063 3.25-4.429688 4.679687zm-69.445312 140.628906c-42.953125-24.304687-66.382813-71.609375-59.695313-120.503906 3.371094-24.652344 17.246094-46.605469 38.066406-60.230469 20.816407-13.625 46.484376-17.554687 70.425782-10.777344 9.003906 2.546876 18.234375 3.921876 27.515625 4.125l2.929687 7.730469c2.390625 6.316407 2.824219 13.042969 1.539063 19.410157-13.28125.207031-26.496094-1.527344-39.367188-5.167969-16.382812-4.636719-33.949219-1.949219-48.191406 7.371093-14.246094 9.324219-23.738281 24.34375-26.046875 41.210938-5.171875 37.832031 12.957031 74.425781 46.183594 93.230469l14.871094 8.414062c1.566406 7.035157 3.71875 14.007813 6.511718 20.839844l7.445313 18.222656zm150.398437-16.757812c0 2.238281.449219 4.390625 1.296875 6.429687-13.296875 3.757813-24.003906 8.242188-33.695312 12.304688-22.175781 9.300781-37.09375 15.550781-66.105469 6.011718l-3.269531-8.007812c-2.683594-6.5625-4.695313-13.265625-6.101563-20.027344 14.050782 5.113282 25.605469 7.152344 35.828125 7.152344 16.984375 0 30.324219-5.59375 45.460938-11.945312 11.957031-5.015626 25.347656-10.621094 43.242187-14.511719.289063.765625.601563 1.535156.945313 2.3125-10.949219 4.195312-17.601563 11.609375-17.601563 20.28125zm102.945313 8.203125c-2.535157.433594-4.671875 2.140625-5.65625 4.519531s-.683594 5.09375.804687 7.199219c5.921875 8.378906 6.359375 15.121094 4.941406 16.542968-1.421874 1.417969-8.164062.980469-16.542968-4.945312-2.101563-1.484375-4.820313-1.789062-7.199219-.800781-2.378906.984375-4.085937 3.121093-4.523437 5.65625-1.734376 10.117187-6.195313 15.191406-8.199219 15.191406-2.007813 0-6.464844-5.074219-8.203125-15.191406-.4375-2.535157-2.144532-4.671875-4.523438-5.65625-.921875-.382813-1.898437-.574219-2.867187-.574219-1.527344 0-3.042969.46875-4.328125 1.375-8.382813 5.925781-15.128906 6.363281-16.542969 4.945312-1.421875-1.421874-.984375-8.164062 4.941406-16.542968 1.484375-2.105469 1.789063-4.820313.804688-7.199219s-3.121094-4.085937-5.660157-4.519531c-10.113281-1.738282-15.191406-6.199219-15.191406-8.203125 0-2.007813 5.078125-6.464844 15.191406-8.203125 2.539063-.4375 4.675782-2.144532 5.660157-4.523438s.679687-5.09375-.804688-7.199218c-5.925781-8.378907-6.363281-15.121094-4.945312-16.539063 1.421875-1.421875 8.164062-.984375 16.546875 4.941406 2.097656 1.484375 4.816406 1.789063 7.195312.800781 2.378906-.984374 4.085938-3.121093 4.523438-5.65625 1.738281-10.117187 6.195312-15.191406 8.203125-15.191406 2.003906 0 6.464843 5.074219 8.199219 15.191406.4375 2.535157 2.144531 4.671876 4.523437 5.65625 2.378906.988282 5.097656.683594 7.199219-.800781 8.382812-5.925781 15.125-6.363281 16.542968-4.941406 1.417969 1.417969.980469 8.160156-4.941406 16.539063-1.488281 2.101562-1.789062 4.820312-.804687 7.199218s3.121093 4.085938 5.65625 4.523438c10.117187 1.738281 15.191406 6.195312 15.191406 8.203125 0 2.003906-5.074219 6.464843-15.191406 8.203125zm131.964843 8.53125-3.273437 8.011718c-29.011719 9.539063-43.925781 3.289063-66.105469-6.011718-9.6875-4.066406-20.394531-8.546875-33.691406-12.304688.84375-2.039062 1.296875-4.191406 1.296875-6.429687 0-8.675781-6.65625-16.085938-17.605469-20.285157.347656-.773437.65625-1.546874.945313-2.3125 17.898437 3.890626 31.289062 9.496094 43.246093 14.511719 15.136719 6.351563 28.472657 11.945313 45.457032 11.945313 10.222656 0 21.777344-2.042969 35.828125-7.152344-1.402344 6.765625-3.414063 13.46875-6.097657 20.027344zm0 0" fill="#676767"/></svg>
