<?xml version="1.0" encoding="iso-8859-1"?>
<!-- Generator: Adobe Illustrator 22.1.0, SVG Export Plug-In . SVG Version: 6.00 Build 0)  -->
<svg xmlns="http://www.w3.org/2000/svg" xmlns:xlink="http://www.w3.org/1999/xlink" version="1.1" id="Layer_1_1_" x="0px" y="0px" viewBox="0 0 64 64" style="enable-background:new 0 0 64 64;" xml:space="preserve" width="512" height="512">
<g>
	<g>
		<rect x="46" y="23" width="2" height="3"/>
	</g>
	<g>
		<rect x="48.382" y="24" transform="matrix(0.4472 -0.8944 0.8944 0.4472 5.0022 58.0938)" width="2.236" height="2"/>
	</g>
	<g>
		<rect x="43.5" y="23.882" transform="matrix(0.8944 -0.4472 0.4472 0.8944 -6.4823 22.5403)" width="2" height="2.236"/>
	</g>
	<g>
		<path style="fill:#F0BC5E;" d="M12,36h5v18.806C19.66,53.629,22.551,53,25.5,53c1.871,0,3.719,0.256,5.5,0.739V45    c0-1.654,1.346-3,3-3c2.757,0,5-2.243,5-5V26c0-1.654-1.346-3-3-3s-3,1.346-3,3v9c0,0.552-0.448,1-1,1s-1-0.448-1-1V8.252    c0-3.885-3.044-7.136-6.785-7.249c-1.903-0.053-3.719,0.643-5.089,1.973C17.755,4.306,17,6.09,17,8v16.893    c0,0.538-0.362,1.018-0.825,1.093c-0.302,0.052-0.594-0.029-0.822-0.223C15.129,25.572,15,25.294,15,25v-7.828    c0-2.646-1.982-4.907-4.513-5.148c-1.401-0.138-2.81,0.33-3.85,1.275C5.597,14.245,5,15.594,5,17v12C5,32.859,8.141,36,12,36z"/>
	</g>
	<g>
		<path style="fill:#F0BC5E;" d="M58,33c-1.654,0-3,1.346-3,3v5c0,0.552-0.448,1-1,1s-1-0.448-1-1V31c0-3.309-2.691-6-6-6    s-6,2.691-6,6v25.935C42.452,56.326,44.016,56,45.606,56h0.021c2.328,0,4.555,0.697,6.454,1.923L53,58v-7c0-1.654,1.346-3,3-3    c2.757,0,5-2.243,5-5v-7C61,34.346,59.654,33,58,33z"/>
	</g>
	<g>
		<rect x="21" y="56" width="2" height="2"/>
	</g>
	<g>
		<rect x="27" y="57" width="2" height="2"/>
	</g>
	<g>
		<rect x="13" y="58" width="2" height="2"/>
	</g>
	<g>
		<path d="M19,32h-6c-2.206,0-4-1.794-4-4V14h2v14c0,1.103,0.897,2,2,2h6V32z"/>
	</g>
	<g>
		<path d="M27,33h-2V6.829c0-0.839-0.176-1.651-0.523-2.415l1.82-0.828C26.764,4.611,27,5.702,27,6.829V33z"/>
	</g>
	<g>
		<rect x="61" y="61" width="2" height="2"/>
		<rect x="1" y="61" width="2" height="2"/>
		<path d="M56.535,61l-0.168-0.252C53.968,57.148,49.953,55,45.605,55c-2.286,0-4.507,0.604-6.473,1.746    C35.26,53.69,30.439,52,25.5,52c-0.839,0-1.672,0.066-2.5,0.161V23h-2v29.487c-3.44,0.722-6.693,2.242-9.438,4.488L6.642,61H5v2    h54v-2H56.535z M37,61v-1h-2v1H9.802l3.027-2.477C16.394,55.606,20.894,54,25.5,54s9.106,1.606,12.671,4.523L41.198,61H37z M51,61    v-2h-2v2h-4.642l-3.534-2.892c1.299-0.635,2.714-0.99,4.176-1.073V59h2v-1.906c2.763,0.351,5.281,1.743,7.052,3.906H51z"/>
	</g>
	<g>
		<rect x="21" y="7" width="2" height="2"/>
	</g>
	<g>
		<rect x="21" y="13" width="2" height="2"/>
	</g>
	<g>
		<rect x="21" y="19" width="2" height="2"/>
	</g>
	<g>
		<rect x="25" y="35" width="2" height="2"/>
	</g>
	<g>
		<rect x="25" y="41" width="2" height="2"/>
	</g>
	<g>
		<rect x="27" y="47" width="2" height="2"/>
	</g>
	<g>
		<path d="M47,45h-2V32.605c0-1.724,0.338-3.404,1.005-4.992l1.844,0.773C47.286,29.729,47,31.149,47,32.605V45z"/>
	</g>
	<g>
		<rect x="45" y="47" width="2" height="2"/>
	</g>
	<g>
		<rect x="45" y="51" width="2" height="2"/>
	</g>
</g>
</svg>
