<?xml version="1.0"?>
<svg xmlns="http://www.w3.org/2000/svg" height="512px" version="1.1" viewBox="1 -5 608.68 608" width="512px">
<g id="surface1">
<path d="M 599.015625 517.703125 C 599.042969 495.757812 587.316406 475.480469 568.277344 464.5625 C 569.355469 462.425781 570.445312 460.277344 571.363281 458.0625 L 598.25 393.546875 C 600.382812 388.464844 597.988281 382.613281 592.90625 380.480469 C 591.679688 379.964844 590.363281 379.699219 589.035156 379.699219 L 449.261719 379.699219 L 449.261719 309.816406 C 449.1875 271.457031 427.144531 236.53125 392.546875 219.964844 C 420.105469 201.660156 427.609375 164.484375 409.308594 136.925781 C 391.007812 109.367188 353.828125 101.863281 326.269531 120.164062 C 298.710938 138.464844 291.207031 175.640625 309.507812 203.203125 C 311.609375 206.367188 314.007812 209.324219 316.671875 212.035156 C 297.492188 215.921875 279.890625 225.398438 266.085938 239.273438 L 247.476562 257.882812 C 235.328125 270.007812 235.308594 289.683594 247.433594 301.832031 C 258.867188 313.289062 277.179688 314.050781 289.523438 303.585938 L 289.523438 321.636719 C 285.835938 322.957031 282.445312 324.996094 279.542969 327.628906 C 267.375 316.527344 248.511719 317.394531 237.414062 329.5625 C 232.378906 335.078125 229.601562 342.285156 229.625 349.75 L 229.625 379.703125 L 9.984375 379.703125 C 4.46875 379.703125 0 384.171875 0 389.683594 C 0 391.003906 0.261719 392.3125 0.769531 393.527344 L 27.65625 458.042969 C 29.136719 461.394531 30.804688 464.660156 32.648438 467.828125 C 22.019531 464.871094 11.03125 463.4375 0 463.5625 L 0 483.53125 C 19.550781 483.035156 38.742188 488.835938 54.742188 500.082031 C 73.894531 513.132812 96.628906 519.90625 119.804688 519.472656 C 142.953125 519.894531 165.664062 513.121094 184.796875 500.082031 C 200.816406 488.824219 220.035156 483.023438 239.605469 483.53125 C 259.160156 483.035156 278.355469 488.839844 294.355469 500.082031 C 313.480469 513.121094 336.179688 519.894531 359.320312 519.472656 C 382.492188 519.90625 405.226562 513.128906 424.382812 500.082031 C 435.878906 492.230469 448.941406 486.96875 462.671875 484.667969 L 478.414062 535.84375 C 479.230469 538.472656 480.230469 541.035156 481.410156 543.519531 C 480.621094 543.519531 479.941406 543.429688 479.144531 543.429688 C 455.96875 543 433.234375 549.777344 414.078125 562.828125 C 398.066406 574.0625 378.875 579.859375 359.320312 579.371094 C 339.773438 579.867188 320.582031 574.066406 304.578125 562.828125 C 285.453125 549.792969 262.75 543.015625 239.605469 543.429688 C 216.441406 543.003906 193.710938 549.78125 174.5625 562.828125 C 158.554688 574.070312 139.359375 579.871094 119.804688 579.371094 C 100.253906 579.867188 81.066406 574.066406 65.0625 562.828125 C 45.910156 549.777344 23.175781 543 0 543.429688 L 0 563.398438 C 19.550781 562.902344 38.742188 568.707031 54.742188 579.953125 C 73.894531 593 96.628906 599.777344 119.804688 599.339844 C 142.96875 599.769531 165.691406 592.996094 184.835938 579.953125 C 200.84375 568.703125 220.046875 562.898438 239.605469 563.398438 C 259.160156 562.902344 278.355469 568.707031 294.355469 579.953125 C 313.480469 592.988281 336.179688 599.761719 359.320312 599.339844 C 382.492188 599.769531 405.226562 592.996094 424.382812 579.953125 C 457.574219 557.882812 500.765625 557.882812 533.953125 579.953125 C 553.109375 592.996094 575.84375 599.769531 599.015625 599.339844 L 599.015625 579.371094 C 587.054688 579.691406 575.148438 577.597656 564.011719 573.222656 C 585.375 562.976562 598.980469 541.398438 599.015625 517.703125 Z M 574.058594 399.667969 L 552.941406 450.34375 C 551.945312 452.621094 550.945312 454.847656 549.777344 457.015625 L 464.40625 430.746094 L 445.859375 413.234375 C 448.0625 409.050781 449.230469 404.398438 449.261719 399.667969 Z M 359.410156 130.109375 C 381.464844 130.109375 399.34375 147.988281 399.34375 170.042969 C 399.34375 192.097656 381.464844 209.976562 359.410156 209.976562 C 337.355469 209.976562 319.476562 192.097656 319.476562 170.042969 C 319.476562 147.988281 337.355469 130.109375 359.410156 130.109375 Z M 261.640625 287.78125 C 257.277344 283.40625 257.277344 276.324219 261.640625 271.949219 L 280.25 253.339844 C 295.195312 238.3125 315.535156 229.886719 336.730469 229.945312 L 349.425781 229.945312 C 393.519531 229.996094 429.246094 265.726562 429.296875 309.816406 L 429.296875 399.667969 C 429.296875 405.183594 424.828125 409.652344 419.3125 409.652344 C 413.800781 409.652344 409.332031 405.183594 409.332031 399.667969 L 409.332031 299.832031 L 389.363281 299.832031 L 389.363281 359.871094 L 286.402344 262.621094 L 272.683594 277.140625 L 280.671875 284.628906 L 277.515625 287.78125 C 273.140625 292.164062 266.042969 292.171875 261.660156 287.800781 C 261.652344 287.792969 261.648438 287.789062 261.640625 287.78125 Z M 309.492188 321.636719 L 309.492188 311.890625 L 381.292969 379.699219 L 329.460938 379.699219 L 329.460938 349.75 C 329.40625 337.101562 321.414062 325.851562 309.492188 321.636719 Z M 299.507812 339.765625 C 305.023438 339.765625 309.492188 344.234375 309.492188 349.75 L 309.492188 379.699219 L 289.523438 379.699219 L 289.523438 349.75 C 289.523438 344.234375 293.996094 339.765625 299.507812 339.765625 Z M 249.589844 349.75 C 249.589844 344.234375 254.058594 339.765625 259.574219 339.765625 C 265.089844 339.765625 269.558594 344.234375 269.558594 349.75 L 269.558594 379.699219 L 249.589844 379.699219 Z M 414.109375 482.960938 C 398.089844 494.195312 378.882812 499.996094 359.320312 499.503906 C 339.773438 499.996094 320.582031 494.199219 304.582031 482.960938 C 285.453125 469.925781 262.75 463.148438 239.609375 463.5625 C 216.441406 463.132812 193.710938 469.910156 174.566406 482.960938 C 158.554688 494.199219 139.359375 500 119.804688 499.503906 C 87.546875 499.554688 58.441406 480.148438 46.085938 450.355469 L 41.605469 439.601562 L 139.773438 439.601562 L 139.773438 419.632812 L 33.277344 419.632812 L 24.960938 399.667969 L 389.363281 399.667969 C 389.3125 416.160156 402.636719 429.570312 419.128906 429.621094 C 423.351562 429.632812 427.527344 428.75 431.382812 427.03125 L 450.480469 445 L 456.761719 465.417969 C 441.523438 468.390625 427.027344 474.355469 414.109375 482.960938 Z M 538.296875 559.304688 C 528.25 553.25 517.300781 548.839844 505.859375 546.246094 L 506.539062 545.617188 C 502.398438 541.144531 499.308594 535.796875 497.503906 529.972656 L 474.34375 454.695312 L 549.617188 477.859375 C 571.605469 484.597656 583.96875 507.886719 577.230469 529.875 C 571.964844 547.058594 556.265625 558.925781 538.296875 559.304688 Z M 538.296875 559.304688 " style=" fill-rule:nonzero;fill-opacity:1;" stroke="#676767" fill="#676767"/>
<path d="M 49.917969 150.078125 L 221.636719 150.078125 C 225.203125 150.078125 228.5 148.175781 230.28125 145.085938 C 249.589844 111.667969 238.148438 68.921875 204.730469 49.613281 C 196.054688 44.601562 186.398438 41.511719 176.421875 40.558594 C 165.535156 9.316406 131.382812 -7.183594 100.144531 3.703125 C 79.125 11.03125 63.898438 29.40625 60.609375 51.421875 C 57.101562 50.628906 53.515625 50.234375 49.917969 50.242188 C 22.351562 50.242188 0 72.59375 0 100.160156 C 0 127.730469 22.351562 150.078125 49.917969 150.078125 Z M 49.917969 70.207031 C 55.359375 70.226562 60.691406 71.753906 65.3125 74.621094 C 70.03125 77.476562 76.167969 75.96875 79.027344 71.253906 C 80.179688 69.347656 80.664062 67.109375 80.398438 64.898438 L 80.171875 63.222656 C 80.003906 62.230469 79.902344 61.230469 79.871094 60.226562 C 79.875 38.167969 97.757812 20.296875 119.8125 20.300781 C 138.785156 20.304688 155.132812 33.652344 158.929688 52.238281 C 159.878906 56.890625 163.96875 60.226562 168.714844 60.226562 L 169.890625 60.226562 C 197.460938 60.3125 219.742188 82.730469 219.65625 110.300781 C 219.632812 117.121094 218.214844 123.863281 215.488281 130.113281 L 49.917969 130.113281 C 33.378906 130.113281 19.96875 116.703125 19.96875 100.160156 C 19.96875 83.621094 33.378906 70.207031 49.917969 70.207031 Z M 49.917969 70.207031 " style=" fill-rule:nonzero;fill-opacity:1;" stroke="#676767" fill="#676767"/>
<path d="M 599.015625 57.71875 C 597.660156 24.703125 569.796875 -0.960938 536.777344 0.394531 C 511.261719 1.441406 489.222656 18.574219 481.910156 43.042969 C 461.960938 46.246094 429.296875 54.542969 429.296875 75.199219 C 429.296875 102.785156 485.773438 110.140625 519.148438 110.140625 C 552.523438 110.140625 609 102.785156 609 75.199219 C 608.734375 68.089844 605.007812 61.558594 599.015625 57.71875 Z M 519.148438 90.175781 C 476.777344 90.175781 453.257812 79.972656 449.53125 75.199219 C 452.070312 71.964844 464.648438 65.128906 491.242188 61.871094 C 495.628906 61.332031 499.136719 57.972656 499.871094 53.617188 C 503.445312 31.898438 523.949219 17.1875 545.667969 20.761719 C 564.972656 23.9375 579.117188 40.660156 579.050781 60.226562 C 579.050781 60.773438 579 61.222656 578.960938 61.742188 L 578.960938 62.324219 C 578.675781 66.191406 580.65625 69.875 584.039062 71.765625 C 585.792969 72.667969 587.390625 73.84375 588.773438 75.25 C 584.949219 80.023438 561.390625 90.175781 519.148438 90.175781 Z M 519.148438 90.175781 " style=" fill-rule:nonzero;fill-opacity:1;" stroke="#676767" fill="#676767"/>
</g>
</svg>
