<?xml version="1.0" encoding="utf-8"?>
<!-- Generator: Adobe Illustrator 19.2.1, SVG Export Plug-In . SVG Version: 6.00 Build 0)  -->
<svg version="1.1" xmlns="http://www.w3.org/2000/svg" xmlns:xlink="http://www.w3.org/1999/xlink" x="0px" y="0px"
	 viewBox="0 0 43.7 43.7" style="enable-background:new 0 0 43.7 43.7;" xml:space="preserve">
<style type="text/css">
	.st0{fill:#FFFFFF;}
	.st1{fill:#008688;}
	.st2{opacity:0.5;fill:#008688;}
	.st3{fill:#EEEEEE;}
	.st4{fill:#CFD1CF;}
	.st5{clip-path:url(#SVGID_8_);}
	.st6{fill:#008BC8;}
	.st7{clip-path:url(#SVGID_14_);}
	.st8{opacity:0.9;fill:#FF5900;}
	.st9{opacity:0.9;fill:#00AE00;}
	.st10{opacity:0.85;fill:#C200FF;}
	.st11{clip-path:url(#SVGID_16_);}
	.st12{clip-path:url(#SVGID_18_);}
	.st13{opacity:0.9;fill:#008BC8;}
	.st14{fill:#FFB100;}
	.st15{fill:#FF0512;}
	.st16{fill:#C200FF;}
	.st17{fill:#63767C;}
	.st18{fill-rule:evenodd;clip-rule:evenodd;fill:#BE3337;}
	.st19{fill-rule:evenodd;clip-rule:evenodd;fill:#EAB92D;}
	.st20{fill-rule:evenodd;clip-rule:evenodd;fill:#009DE0;}
	.st21{fill-rule:evenodd;clip-rule:evenodd;fill:#FFD400;}
	.st22{fill-rule:evenodd;clip-rule:evenodd;fill:#8CB63C;}
	.st23{fill:#FFD400;}
	.st24{fill:#19CE80;}
	.st25{fill:#4E75E0;}
	.st26{fill:#802B99;}
	.st27{fill:#524B6A;}
	.st28{fill:#2D283E;}
	.st29{fill:#FF081A;}
	.st30{fill:#3F0F9D;}
	.st31{fill:#1E0055;}
	.st32{fill:none;stroke:#FFFFFF;stroke-miterlimit:10;}
	.st33{clip-path:url(#SVGID_20_);}
	.st34{fill-rule:evenodd;clip-rule:evenodd;fill:#DC2F34;}
	.st35{fill-rule:evenodd;clip-rule:evenodd;fill:#FBBA06;}
	.st36{fill-rule:evenodd;clip-rule:evenodd;fill:#009FE3;}
	.st37{fill-rule:evenodd;clip-rule:evenodd;fill:#76B82A;}
	.st38{fill:none;stroke:#CFD1CF;stroke-miterlimit:10;}
	.st39{fill:#00AE00;}
	.st40{clip-path:url(#SVGID_22_);}
	.st41{opacity:0.55;fill:#FF5900;}
	.st42{fill:none;stroke:#DDDDDD;stroke-miterlimit:10;}
	.st43{fill:#FF5900;}
	.st44{clip-path:url(#SVGID_26_);}
	.st45{opacity:0.62;fill:#008688;}
	.st46{opacity:0.61;fill:#008688;}
	.st47{clip-path:url(#SVGID_32_);}
	.st48{opacity:0.49;fill:#00AE00;}
	.st49{clip-path:url(#SVGID_36_);}
	.st50{opacity:0.55;fill:#FFB100;}
	.st51{clip-path:url(#SVGID_40_);}
	.st52{opacity:0.55;fill:#FF0512;}
	.st53{clip-path:url(#SVGID_44_);}
	.st54{opacity:0.55;fill:#C200FF;}
	.st55{fill:#201F1E;}
	.st56{fill:none;stroke:#63767C;stroke-miterlimit:10;}
	.st57{fill:#383838;}
	.st58{fill:none;stroke:#B3BBCF;stroke-miterlimit:10;}
	.st59{fill:#F1F1F1;}
	.st60{fill:none;stroke:#B4BCD0;stroke-miterlimit:10;}
	.st61{clip-path:url(#SVGID_58_);}
	.st62{fill:#BEBEBE;}
	.st63{fill:#212121;}
	.st64{fill:#E1E1E1;}
	.st65{opacity:0.17;}
	.st66{fill:none;stroke:#FF5900;stroke-miterlimit:10;}
	.st67{fill:#008DCA;}
	.st68{fill:#232323;}
</style>
<g id="Capa_1">
	<path class="st0" d="M30.9,14.7l-8,7.1l3.2,2.8l0,0l4.8,4.3l-1,1.1l-4.8-4.3l0,0l-3.3-2.9l-8.1,7.2l-1-1.1l8-7.1L19.7,21l-7-6.3
		l1-1.1l5.9,5.3l0,0l2.2,2l8.1-7.2L30.9,14.7z M43.7,21.8c0,12-9.8,21.8-21.8,21.8C9.8,43.7,0,33.9,0,21.8C0,9.8,9.8,0,21.8,0
		C33.9,0,43.7,9.8,43.7,21.8z M42.5,21.8c0-11.4-9.3-20.7-20.7-20.7S1.2,10.4,1.2,21.8s9.3,20.7,20.7,20.7S42.5,33.2,42.5,21.8z"/>
</g>
<g id="Capa_2">
</g>
<g id="Capa_3">
</g>
</svg>
