<?xml version="1.0" encoding="iso-8859-1"?>
<!-- Generator: Adobe Illustrator 17.1.0, SVG Export Plug-In . SVG Version: 6.00 Build 0)  -->
<!DOCTYPE svg PUBLIC "-//W3C//DTD SVG 1.1//EN" "http://www.w3.org/Graphics/SVG/1.1/DTD/svg11.dtd">
<svg xmlns="http://www.w3.org/2000/svg" xmlns:xlink="http://www.w3.org/1999/xlink" version="1.1" id="Capa_1" x="0px" y="0px" viewBox="0 0 209.22 209.22" style="enable-background:new 0 0 209.22 209.22;" xml:space="preserve" width="512px" height="512px">
<path d="M79.629,202.069c-0.64,0-1.279-0.244-1.768-0.732c-0.977-0.977-0.977-2.559,0-3.535l81.357-81.358  c-3.258-4.902-2.727-11.596,1.593-15.914c0.287-0.287,0.593-0.563,0.93-0.838l28.944-28.945c0.938-0.938,2.598-0.938,3.535,0  l14.267,14.267c0.977,0.977,0.977,2.559,0,3.535l-29.576,29.577c-0.095,0.106-0.166,0.186-0.242,0.262  c-2.385,2.385-5.556,3.698-8.929,3.698c-2.524,0-4.936-0.734-6.988-2.104l-81.355,81.356  C80.908,201.825,80.269,202.069,79.629,202.069z M192.453,76.048l-27.27,27.271c-0.064,0.065-0.134,0.127-0.205,0.184  c-0.218,0.175-0.43,0.36-0.632,0.562c-2.974,2.975-2.975,7.813-0.001,10.787c2.975,2.975,7.813,2.973,10.788,0l0.15-0.17  c0.017-0.017,0.032-0.033,0.049-0.05l27.852-27.852L192.453,76.048z M34.002,181.096c-1.9,0-3.73-0.747-5.125-2.142  c-1.851-1.85-2.562-4.463-1.904-6.992c3.962-15.221,17.465-54.91,57.182-94.628c39.533-39.533,81.956-55.967,98.359-61.197  c2.615-0.833,5.448-0.15,7.388,1.79c1.938,1.939,2.625,4.771,1.79,7.388c-5.23,16.403-21.664,58.826-61.197,98.359l0,0  c-39.718,39.717-79.407,53.22-94.628,57.181C35.246,181.017,34.62,181.096,34.002,181.096z M184.769,20.782  c-0.226,0-0.472,0.035-0.735,0.119c-16.057,5.12-57.585,21.212-96.344,59.969c-38.85,38.851-52.019,77.527-55.878,92.353  c-0.297,1.144,0.32,1.917,0.6,2.196c0.28,0.279,1.06,0.893,2.195,0.599c14.825-3.859,53.502-17.028,92.353-55.878l0,0  c38.757-38.759,54.849-80.287,59.969-96.344c0.387-1.211-0.265-2.034-0.563-2.332C186.133,21.23,185.578,20.782,184.769,20.782z   M46.087,164.242c-0.64,0-1.279-0.244-1.768-0.732c-0.977-0.977-0.977-2.559,0-3.535l41.365-41.365c0.977-0.977,2.559-0.977,3.535,0  s0.977,2.559,0,3.535l-41.365,41.365C47.366,163.998,46.727,164.242,46.087,164.242z M16.766,139.207  c-0.663,0-1.299-0.264-1.768-0.732L0.732,124.208c-0.977-0.977-0.977-2.559,0-3.535l29.574-29.575  c0.097-0.11,0.174-0.194,0.256-0.276c4.309-4.307,11.001-4.836,15.902-1.58l81.358-81.357c0.977-0.977,2.559-0.977,3.535,0  s0.977,2.559,0,3.535L50,92.777c3.258,4.902,2.727,11.596-1.592,15.914c-0.283,0.283-0.588,0.559-0.929,0.837l-28.946,28.946  C18.064,138.943,17.429,139.207,16.766,139.207z M6.035,122.44l10.73,10.731l27.271-27.271c0.063-0.064,0.131-0.125,0.202-0.182  c0.218-0.175,0.432-0.361,0.635-0.563c2.974-2.974,2.974-7.813,0-10.787c-2.975-2.973-7.813-2.973-10.787,0l-0.15,0.17  c-0.017,0.017-0.032,0.033-0.049,0.05L6.035,122.44z M109.724,118.702c-5.501,0-10.674-2.143-14.563-6.033  c-3.891-3.89-6.033-9.062-6.033-14.563c0-5.501,2.143-10.674,6.033-14.563c8.029-8.031,21.098-8.031,29.127,0  c3.891,3.89,6.033,9.063,6.033,14.563c0,5.502-2.143,10.674-6.033,14.563C120.397,116.559,115.225,118.702,109.724,118.702z   M109.724,82.516c-3.994,0-7.987,1.521-11.028,4.561c-2.945,2.946-4.568,6.862-4.568,11.028s1.623,8.083,4.568,11.028  c6.082,6.08,15.975,6.08,22.057,0c2.945-2.945,4.568-6.862,4.568-11.028s-1.623-8.082-4.568-11.028  C117.711,84.037,113.718,82.516,109.724,82.516z M131.501,78.828c-0.64,0-1.279-0.244-1.768-0.732c-0.977-0.977-0.977-2.559,0-3.535  l41.365-41.365c0.977-0.977,2.559-0.977,3.535,0s0.977,2.559,0,3.535l-41.365,41.365C132.78,78.583,132.141,78.828,131.501,78.828z" fill="#676767"/>
<g>
</g>
<g>
</g>
<g>
</g>
<g>
</g>
<g>
</g>
<g>
</g>
<g>
</g>
<g>
</g>
<g>
</g>
<g>
</g>
<g>
</g>
<g>
</g>
<g>
</g>
<g>
</g>
<g>
</g>
</svg>
