<?xml version="1.0" encoding="iso-8859-1"?>
<!-- Generator: Adobe Illustrator 22.1.0, SVG Export Plug-In . SVG Version: 6.00 Build 0)  -->
<svg xmlns="http://www.w3.org/2000/svg" xmlns:xlink="http://www.w3.org/1999/xlink" version="1.1" id="Layer_1_1_" x="0px" y="0px" viewBox="0 0 64 64" style="enable-background:new 0 0 64 64;" xml:space="preserve" width="512" height="512">
<g>
	<g>
		<path style="fill:#F0BC5E;" d="M57,14H36.063l0,0c-0.439,1.419-0.751,2.877-0.899,4.361l-0.027,0.274    C35.059,19.41,34.407,20,33.628,20c-0.402,0-0.788-0.16-1.072-0.444L32,19l-0.556,0.556C31.16,19.84,30.774,20,30.372,20    c-0.779,0-1.431-0.59-1.509-1.365l-0.027-0.268c-0.149-1.493-0.487-2.945-0.941-4.366H7v8l2,2l-2,2v16h50v-4l-2-2l2-2V14z"/>
	</g>
	<g>
		<path d="M18.045,9.784c1.021,0.766,2.228,1.266,3.49,1.446l4.494,0.642c1.012,2.442,1.61,4.573,1.813,6.593l0.026,0.271    C27.998,20.026,29.075,21,30.372,21c0.604,0,1.174-0.21,1.628-0.597C32.454,20.79,33.024,21,33.628,21    c1.297,0,2.374-0.974,2.504-2.266l0.027-0.273c0.227-2.276,0.837-4.482,1.775-6.584l4.531-0.647c1.263-0.18,2.47-0.68,3.49-1.446    C47.862,8.354,49,6.078,49,3.694v-0.36C49,2.047,47.953,1,46.667,1c-0.73,0-1.429,0.349-1.867,0.934L43.4,3.8    C42.836,4.551,41.939,5,41,5h-2.683c-0.397-0.837-0.955-1.599-1.662-2.229c-1.488-1.326-3.483-1.954-5.487-1.723    C28.78,1.325,26.716,2.888,25.695,5H23c-0.939,0-1.836-0.449-2.4-1.2L19.2,1.933C18.762,1.349,18.063,1,17.333,1    C16.047,1,15,2.047,15,3.333v0.36C15,6.078,16.138,8.354,18.045,9.784z M41,7c1.565,0,3.061-0.748,4-2l1.399-1.866    c0.172-0.233,0.6-0.089,0.601,0.2v0.36c0,1.757-0.839,3.436-2.244,4.489c-0.753,0.565-1.644,0.934-2.574,1.067l-3.406,0.486    C38.92,9.173,39,8.594,39,8c0-0.337-0.033-0.67-0.081-1H41z M27.058,7.23c0.322-2.177,2.148-3.941,4.341-4.196    c1.455-0.164,2.847,0.269,3.926,1.23C36.39,5.214,37,6.575,37,8c0,0.773-0.172,1.515-0.512,2.203    c-1.259,2.548-2.039,5.259-2.319,8.059l-0.027,0.273c-0.04,0.401-0.594,0.6-0.879,0.314L32,17.585l-1.263,1.264    c-0.286,0.287-0.839,0.086-0.879-0.312l-0.026-0.271c-0.253-2.522-1.015-5.139-2.399-8.234C27.044,9.165,26.914,8.196,27.058,7.23    z M17,3.333c0-0.289,0.429-0.429,0.601-0.201L19,5c0.939,1.252,2.435,2,4,2h2.074c-0.129,0.926-0.071,1.853,0.155,2.737    L21.818,9.25c-0.931-0.133-1.821-0.502-2.574-1.067C17.839,7.129,17,5.451,17,3.694V3.333z"/>
		<rect x="34" y="7" width="2" height="2"/>
		<rect x="28" y="7" width="2" height="2"/>
		<rect x="30" y="35" width="22" height="2"/>
		<rect x="26" y="35" width="2" height="2"/>
		<rect x="12" y="23" width="22" height="2"/>
		<rect x="12" y="27" width="22" height="2"/>
		<rect x="30" y="31" width="22" height="2"/>
		<rect x="36" y="23" width="2" height="2"/>
		<rect x="61" y="61" width="2" height="2"/>
		<rect x="1" y="61" width="2" height="2"/>
		<path d="M57.707,54.707l-1.414-1.414c-0.895,0.895-1.657,1.894-2.293,2.966V51h-2v5.259c-0.636-1.072-1.398-2.071-2.293-2.966    l-1.414,1.414c1.736,1.736,2.926,3.906,3.474,6.293h-1.865c-0.718-3.996-5.683-7-11.901-7c-0.676,0-1.342,0.047-2,0.12V42h-2    v12.469c-0.678,0.158-1.331,0.356-1.959,0.594c-0.643-0.246-1.326-0.451-2.041-0.615V42h-2v12.115C27.349,54.045,26.685,54,26,54    c-6.219,0-11.183,3.004-11.901,7h-1.865c0.547-2.387,1.738-4.557,3.474-6.293l-1.414-1.414c-0.895,0.895-1.657,1.894-2.293,2.966    V51h-2v5.259c-0.636-1.072-1.398-2.071-2.293-2.966l-1.414,1.414C8.029,56.443,9.219,58.613,9.767,61H5v2h54v-2h-4.767    C54.781,58.613,55.971,56.443,57.707,54.707z M38,56c4.854,0,9.021,2.205,9.843,5h-9.942c-0.325-1.806-1.513-3.409-3.297-4.623    C35.687,56.137,36.827,56,38,56z M26,56c4.854,0,9.021,2.205,9.843,5H16.157C16.979,58.205,21.146,56,26,56z"/>
	</g>
</g>
</svg>
