<?xml version="1.0" encoding="iso-8859-1"?>
<!-- Generator: Adobe Illustrator 22.1.0, SVG Export Plug-In . SVG Version: 6.00 Build 0)  -->
<svg xmlns="http://www.w3.org/2000/svg" xmlns:xlink="http://www.w3.org/1999/xlink" version="1.1" id="Layer_1_1_" x="0px" y="0px" viewBox="0 0 64 64" style="enable-background:new 0 0 64 64;" xml:space="preserve" width="512" height="512">
<g>
	<g>
		<path style="fill:#F0BC5E;" d="M20,39c1.217,0,2.404-0.126,3.557-0.345l0.164-0.984C23.882,36.707,24.717,36,25.694,36h4.526    c0.613-0.392,1.208-0.809,1.77-1.267l0.754-5.03C32.891,28.724,33.732,28,34.722,28H36l1.781-14.248    c0.011-0.086,0.034-0.167,0.055-0.249C35.179,6.214,28.208,1,20,1C9.507,1,1,9.507,1,20S9.507,39,20,39z"/>
	</g>
	<g>
		<rect x="33.469" y="36" transform="matrix(0.124 -0.9923 0.9923 0.124 -3.8656 69.6211)" width="8.062" height="2"/>
		<rect x="61" y="61" width="2" height="2"/>
		<path d="M60.8,47l-6.472-28.661C54.017,16.962,52.813,16,51.401,16h-2.273l-0.761-2.789C48.012,11.909,46.822,11,45.473,11h-5.707    c-1.51,0-2.79,1.13-2.977,2.628L35.117,27h-0.395c-1.496,0-2.744,1.074-2.968,2.555L30.938,35h-5.244    c-1.474,0-2.718,1.055-2.959,2.507L21.153,47h-2.209c-0.499-4.494-4.319-8-8.944-8c-4.963,0-9,4.037-9,9    c0,4.625,3.506,8.445,8,8.944V61H5v2h54v-2h-9v-7h5c2.206,0,4-1.794,4-4c0-0.344-0.044-0.679-0.126-1H63v-2H60.8z M24.708,37.835    C24.788,37.352,25.203,37,25.694,37h4.944l-1.5,10h-5.958L24.708,37.835z M9,50.149l-2.219-2.774l-1.562,1.25L9,53.351v1.578    C5.612,54.442,3,51.521,3,48c0-3.859,3.141-7,7-7s7,3.141,7,7c0,3.521-2.612,6.442-6,6.929v-1.578l3.781-4.726l-1.562-1.25    L11,50.149V47H9V50.149z M48,61H11v-4.056c4.165-0.462,7.482-3.779,7.944-7.944h20.182C39.044,49.321,39,49.656,39,50    c0,2.206,1.794,4,4,4h5V61z M55,52h-3.919l2.7-3.375l-1.562-1.25L50,50.149V47h-2v3.149l-2.219-2.774l-1.562,1.25l2.7,3.375H43    c-1.103,0-2-0.897-2-2c0-0.872,0.567-1.635,1.411-1.896l1.148-0.356L43,46.683c-0.411-0.782-0.273-1.723,0.343-2.34    c0.615-0.616,1.556-0.756,2.34-0.343l1.064,0.56l0.356-1.148C47.365,42.567,48.128,42,49,42s1.635,0.567,1.896,1.411l0.356,1.148    L52.317,44c0.783-0.411,1.723-0.274,2.34,0.343c0.616,0.617,0.754,1.558,0.343,2.34l-0.56,1.064l1.148,0.356    C56.433,48.365,57,49.128,57,50C57,51.103,56.103,52,55,52z M57.635,47c-0.155-0.135-0.322-0.259-0.499-0.37    c0.303-1.317-0.076-2.713-1.064-3.701c-0.987-0.988-2.385-1.364-3.701-1.064C51.653,40.72,50.397,40,49,40s-2.653,0.72-3.37,1.864    c-1.314-0.3-2.713,0.076-3.701,1.064s-1.367,2.384-1.064,3.701c-0.177,0.111-0.344,0.235-0.499,0.37h-9.204l2.572-17.147    C33.807,29.366,34.231,29,34.723,29H41v-2h-3.867l1.641-13.124C38.836,13.377,39.263,13,39.766,13h5.707    c0.45,0,0.847,0.303,0.965,0.736l2.598,9.526l1.93-0.525L49.673,18h1.729c0.471,0,0.872,0.32,0.976,0.78L58.749,47H57.635z"/>
		<rect x="1" y="61" width="2" height="2"/>
		<rect x="36.972" y="18.5" transform="matrix(0.1103 -0.9939 0.9939 0.1103 17.5406 58.5953)" width="9.055" height="2"/>
		<rect x="50" y="26.877" transform="matrix(0.9701 -0.2425 0.2425 0.9701 -5.9959 13.2949)" width="1.999" height="8.246"/>
		<polygon points="44.004,25.083 44.427,30.168 42.084,31.34 41.01,38.858 42.99,39.142 43.916,32.66 44.606,32.315 45.004,37.083     46.996,36.917 45.996,24.917   "/>
		<rect x="59" y="55" width="2" height="2"/>
		<rect x="52" y="57" width="2" height="2"/>
		<rect x="35" y="51" width="2" height="2"/>
		<rect x="42" y="57" width="2" height="2"/>
		<rect x="28" y="56" width="2" height="2"/>
		<rect x="3" y="57" width="2" height="2"/>
		<rect x="21" y="51" width="2" height="2"/>
		<rect x="17" y="57" width="2" height="2"/>
	</g>
</g>
</svg>
