<?xml version="1.0"?>
<svg xmlns="http://www.w3.org/2000/svg" height="512px" viewBox="0 0 496 496" width="512px"><path d="m312.046875 183.113281 7.988281-71.996093 15.902344 1.765624-7.988281 71.996094zm0 0" fill="#676767"/><path d="m0 480h16v16h-16zm0 0" fill="#676767"/><path d="m480 480h16v16h-16zm0 0" fill="#676767"/><path d="m344.03125 192.664062 3.382812 40.679688-18.742187 9.375-8.59375 60.144531 15.84375 2.273438 7.40625-51.855469 5.519531-2.761719 3.183594 38.144531 15.9375-1.328124-8-96zm0 0" fill="#676767"/><path d="m280.058594 318.992188 7.996094-64 15.878906 1.984374-7.996094 63.996094zm0 0" fill="#676767"/><path d="m384.214844 209.945312 15.511718-3.878906 16 63.996094-15.515624 3.878906zm0 0" fill="#676767"/><path d="m478.398438 368-51.773438-229.289062c-2.488281-11.015626-12.121094-18.710938-23.417969-18.710938h-18.183593l-6.085938-22.3125c-2.839844-10.414062-12.363281-17.6875-23.152344-17.6875h-45.65625c-7.839844 0-14.914062 3.816406-19.320312 9.777344-23.992188-54.050782-77.542969-89.777344-138.808594-89.777344-83.816406 0-152 68.183594-152 152s68.183594 152 152 152c6.734375 0 13.464844-.449219 20.113281-1.320312l-10.890625 65.320312h-17.671875c-3.992187-35.953125-34.550781-64-71.550781-64-39.703125 0-72 32.296875-72 72 0 37 28.046875 67.558594 64 71.550781v32.449219h-32v16h432v-16h-72v-56h40c17.648438 0 32-14.351562 32-32 0-2.753906-.351562-5.433594-1.007812-8h33.007812v-16zm-326.398438-80c-74.992188 0-136-61.007812-136-136s61.007812-136 136-136c63.078125 0 117.015625 42.320312 132.03125 103.238281l-11.09375 88.761719h-3.160156c-11.96875 0-21.953125 8.59375-23.746094 20.441406l-6.527344 43.558594h-41.953125c-9.589843 0-17.976562 5.585938-21.808593 13.929688-7.789063 1.375-15.757813 2.070312-23.742188 2.070312zm85.113281 0-12 80h-47.664062l12.214843-73.320312c.640626-3.863282 3.960938-6.679688 7.886719-6.679688zm-173.113281 105.191406-17.753906-22.191406-12.492188 10 30.246094 37.808594v12.625c-27.105469-3.898438-48-27.265625-48-55.433594 0-30.871094 25.128906-56 56-56s56 25.128906 56 56c0 28.167969-20.894531 51.535156-48 55.433594v-12.625l30.246094-37.808594-12.492188-10-17.753906 22.191406v-25.191406h-16zm312 86.808594h-296v-32.449219c33.320312-3.695312 59.855469-30.230469 63.550781-63.550781h161.457031c-.65625 2.566406-1.007812 5.246094-1.007812 8 0 17.648438 14.351562 32 32 32h40zm56-72h-31.351562l21.597656-27-12.492188-10-17.753906 22.191406v-25.191406h-16v25.191406l-17.753906-22.191406-12.492188 10 21.597656 27h-31.351562c-8.824219 0-16-7.175781-16-16 0-6.976562 4.535156-13.078125 11.289062-15.167969l9.183594-2.847656-4.472656-8.519531c-3.289062-6.257813-2.183594-13.785156 2.742188-18.722656 4.921874-4.925782 12.449218-6.046876 18.722656-2.742188l8.511718 4.480469 2.847657-9.183594c2.097656-6.761719 8.199219-11.296875 15.175781-11.296875s13.078125 4.535156 15.167969 11.289062l2.847656 9.183594 8.519531-4.472656c6.265625-3.289062 13.785156-2.191406 18.722656 2.742188 4.925782 4.9375 6.03125 12.464843 2.742188 18.722656l-4.480469 8.511718 9.183594 2.847657c6.761719 2.097656 11.296875 8.199219 11.296875 15.175781 0 8.824219-7.175781 16-16 16zm21.078125-40c-1.238281-1.078125-2.574219-2.070312-3.988281-2.960938 2.421875-10.535156-.609375-21.703124-8.515625-29.605468-7.894531-7.90625-19.078125-10.914063-29.605469-8.511719-5.746094-9.160156-15.792969-14.921875-26.96875-14.921875s-21.222656 5.761719-26.960938 14.910156c-10.511718-2.398437-21.703124.609375-29.605468 8.515625-7.90625 7.902344-10.9375 19.070313-8.511719 29.605469-1.417969.890625-2.753906 1.878906-3.992187 2.960938h-73.632813l20.574219-137.175782c.585937-3.886718 3.976562-6.816406 7.914062-6.816406h50.214844v-16h-30.9375l13.128906-104.992188c.496094-3.992187 3.914063-7.007812 7.9375-7.007812h45.65625c3.597656 0 6.773438 2.425781 7.71875 5.886719l20.785156 76.210937 15.4375-4.203125-10.34375-37.894531h13.832032c3.769531 0 6.976562 2.558594 7.808594 6.238281l50.96875 225.761719zm0 0" fill="#676767"/><path d="m464 432h16v16h-16zm0 0" fill="#676767"/><path d="m408 448h16v16h-16zm0 0" fill="#676767"/><path d="m272 400h16v16h-16zm0 0" fill="#676767"/><path d="m328 448h16v16h-16zm0 0" fill="#676767"/><path d="m216 440h16v16h-16zm0 0" fill="#676767"/><path d="m16 448h16v16h-16zm0 0" fill="#676767"/><path d="m160 400h16v16h-16zm0 0" fill="#676767"/><path d="m128 448h16v16h-16zm0 0" fill="#676767"/></svg>
